<svg id="圖層_1" data-name="圖層 1" xmlns="http://www.w3.org/2000/svg" viewBox="0 0 538.53 652.69"><defs><style>.cls-1{fill:#545454;stroke:#545454;stroke-miterlimit:10;stroke-width:10px;}</style></defs><path class="cls-1" d="M7225.45,7134.82v.08c1.51,50.28-25.08,163.58-95.14,128.27-38.08-18.31-65.75-55.92-73.19-97.46-2.35-16.44-2-33,8.33-47.59a14.23,14.23,0,0,0,2.25-7.6c3.33-45,61.88-64.47,100.48-55.21l.1,0C7216,7061.82,7227.46,7090.28,7225.45,7134.82Zm-81.54-75.23c-20.2.48-43,8.05-57.91,23.85-6.88,6.38-12.45,13.78-14.13,23.36-.72,4.12.65,5.3,4.13,3.64,4.88-2.62,44.74-14.83,43.73-5.4,0,2.22-1,3.71-3.27,3.8-15.4,3.9-36.16,2.13-46,16.68-29.49,43.08,25,116,66.09,133.36,72.22,28.29,86.72-101.52,82.24-148.86C7216.7,7071.19,7177.62,7059.21,7143.91,7059.59Z" transform="translate(-6934.95 -6873.64)"/><path class="cls-1" d="M7452.1,7466.82a1.24,1.24,0,0,1,2.4,0c.37,1.31.95,2.34,2.34,2.38,2.08-.18,2.09-3.17,2.5-5.08a.5.5,0,0,0,0-.12c8.46-79.54-10.55-159.36-31.7-235.58-13-42.92-23.38-86.59-35.8-129.68-11.83-36.07-25.8-103.3-69.6-110.17-8.5-1.48-15.73,4-21.5,9.67l-.09.1c-3.84,4.88-7.35.5-3.08-3.38,64.3-50,97.44,89.57,108.86,131.63,21.4,79.61,50.81,158,58.1,240.59,2,33.68,7.69,68.53.05,101.76-1.45,5.08-4.29,9.12-9.17,11.35C7449,7483,7450.59,7473.27,7452.1,7466.82Z" transform="translate(-6934.95 -6873.64)"/><path class="cls-1" d="M6974.15,7519.34c23.13-30.69,28.59-67,40-102.64a.25.25,0,0,1,0-.07c9.22-37.34,18.81-77.79,8.4-115.79-8.85-29.27-18.32-55.37-36.19-81.38-19-29.32-43.17-58.11-46.13-94.24-2.35-20.56,11.39-46.29,34.85-44.51h.08c32.74-.2,54.18-3.45,80.95,18.21.95.61,1.83,1.34,1.65,2.63s-1.38,1.44-2.42,1.82c-5.12,1.91-8.75,2.67-12.77-3.53-4.41-6.79-13.26-8.44-21-10.62-16.48-4.64-33.36-2.73-50.1-2.82h-.18c-36.1,4.77-27.41,53.81-14.09,77.34,16.46,32.27,41.16,59.56,55.64,92.86,30.21,61.7,21,118.81-.13,181.6-6.62,21.48-10.48,44.23-22.48,63.58-4.14,6.38-8,14.78-14.35,19.3A1.24,1.24,0,0,1,6974.15,7519.34Z" transform="translate(-6934.95 -6873.64)"/><path class="cls-1" d="M7326.45,7151.7c-18.16-.42-32.36-8.9-43.82-22.35-6.42-6.85-28.81-46.82-10.12-47a1.22,1.22,0,0,1,1.18.89c.94,3.16-3.37,8,1,15.86a.59.59,0,0,1,0,.08c5.54,12.67,11.26,25.42,22.76,34l.05,0c14.27,12.87,46.34,19.86,53.3-4.21,10.68-32.34-15-67.45-48.62-68.72-11.77-.59-22.09,6.68-31.75,12.88-.79.47-1.82.95-2.61.13-1-1.07-.14-2,.48-2.9,20.76-30.16,65.59-17.44,82.57,10C7367.73,7104.79,7365.29,7152.21,7326.45,7151.7Z" transform="translate(-6934.95 -6873.64)"/><path class="cls-1" d="M7350.24,7246.87c-1.14,18.56-9.39,36-21.16,50.3-4.43,7-14.4,6.52-9.38-.51,10.42-12.91,20.21-27.19,23.29-43.93,0-.06,0-.13,0-.19,1.26-22.15-6.56-25-24.07-13.06l-.13.07c-12,6.3-24.78,11.35-35.75,19.54-1.32,1.19-3.06,2-4.64.48-7.34-9.24,31.28-22.76,37.65-27.55C7334,7220.4,7350.66,7222,7350.24,7246.87Z" transform="translate(-6934.95 -6873.64)"/><path class="cls-1" d="M7008.78,6912.72c-3.18,19.82,10.34,39.24,22.61,53.57a1.14,1.14,0,0,0,.11.11c18.05,16.25,61.58,74.61,85.53,68.1,8.41-.46-.79,10.73-6.88,6.7-32.72-11.69-55.6-45.23-79.29-69.37l0-.05c-9-10.47-18.76-21.23-22.5-34.79-2-7.45-8.39-19.29-1.56-25.43A1.24,1.24,0,0,1,7008.78,6912.72Z" transform="translate(-6934.95 -6873.64)"/><path class="cls-1" d="M7175.56,6997.56c1.08,5.94-7.08,6.13-7.62.46-5.2-31.35-7.42-63.34-15.13-94.16a1.55,1.55,0,0,0-.08-.23c-1.89-3.85,2-4.68,3.18-.82C7168.11,6932.85,7169.68,6966,7175.56,6997.56Z" transform="translate(-6934.95 -6873.64)"/><path class="cls-1" d="M7246.11,6940c-.68-16.92-4.63-41.53-4.49-60.1a1.23,1.23,0,0,1,1.7-1.14c2,.86,2.87,4.31,2.86,6.29.3,12.26,2.47,24.39,4.15,36.41,2.81,15.77,1.66,32,6.31,47.36.61,2.34.75,4.62-1.85,5.59C7245,6976.12,7247.12,6949.25,7246.11,6940Z" transform="translate(-6934.95 -6873.64)"/><path class="cls-1" d="M7286,7408.86a1.24,1.24,0,0,1,2.42-.54c2.86,10.32,7.59,25.61,10.46,25.3,1.71-.09,1.82-1.94,2.32-3.21,2.61-6.72,5.14-13.48,7.8-20.19,3.06-8.34,12.09-17.53,21.72-14.58,4.37,1.59,4.4-1.37,4.24-4.85a1.24,1.24,0,0,1,2.47-.22c.14,1.34.17,2.65.24,3.92.18,3,2.72,6.74.07,9-2.94,2.49-5.48-1.64-8.35-2.38-18.66-3.62-20.72,26-27.09,38.11-1,4-5.7,4.71-6.49.16C7293.91,7433.57,7287.86,7419,7286,7408.86Z" transform="translate(-6934.95 -6873.64)"/><path class="cls-1" d="M7334.8,7104.44c-2.45,18.77-21.1,6.31-15.37-.27a1.54,1.54,0,0,1,1.91-.17c1.79,1.28,2,4.81,4.87,3.68s-1.15-2.67-1.8-4.1c-1.45-3.93-3.85-10.68,1.39-13.35a1.63,1.63,0,0,1,1.07-.11c5.05,1.12,7.27,11,7.93,14.09A.89.89,0,0,1,7334.8,7104.44Z" transform="translate(-6934.95 -6873.64)"/><path class="cls-1" d="M7345.21,7328.71h-.2c-3.56-.2-10-.85-11-4.2.23-1.74,1.89-1.32,3-1.36s2.73-.18,3.68.41c4.68,2.9,9.93,2.51,15,2.88,5.61-.21,7.49,6,2.22,8.33-6.13,3.81-12.21,7.7-18.35,11.47-3.33,2.67-5.49-.47-2.33-2.91C7338.86,7340.49,7355.77,7327.55,7345.21,7328.71Z" transform="translate(-6934.95 -6873.64)"/><path class="cls-1" d="M7154.52,7185.94a1.25,1.25,0,0,1,2.19-.08c2.74,5.06-.45,15.19-6.47,9.69-4.19-6.11-20.78-22.1-7.55-26.23,5.62-2.77,3-13,11-13,10.43-2.11,18.61,38.58,10.34,41.13a1,1,0,0,1-.42.05c-2.8-.12-2.4-2.67-2.39-4.57,0-4.39.05-8.8.45-13.17.64-4.89-2.76-23.21-9.5-14.41a1.65,1.65,0,0,0-.15.25c-3,6-.63,12.55-2.52,18.77a3.16,3.16,0,0,0,2.16,4.17C7153.62,7189,7153.81,7187.36,7154.52,7185.94Z" transform="translate(-6934.95 -6873.64)"/></svg>